<svg width="56" height="56" viewBox="0 0 56 56" fill="none" xmlns="http://www.w3.org/2000/svg">
<path d="M28 56C43.464 56 56 43.464 56 28C56 12.536 43.464 0 28 0C12.536 0 0 12.536 0 28C0 43.464 12.536 56 28 56Z" fill="#333333"/>
<path fill-rule="evenodd" clip-rule="evenodd" d="M16 17C14.3431 17 13 18.3431 13 20V36C13 37.6569 14.3431 39 16 39H39C40.6569 39 42 37.6569 42 36V20C42 18.3431 40.6569 17 39 17H16ZM16 23.6667L27.3051 30.5L39 23.6667V21L27.3051 27.8333L16 21V23.6667Z" fill="white"/>
</svg>
