<svg width="56" height="56" viewBox="0 0 56 56" fill="none" xmlns="http://www.w3.org/2000/svg">
<path d="M55.9269 28.0731C55.9673 12.6495 43.4967 0.113513 28.0731 0.0731345C12.6495 0.0327555 0.113492 12.5033 0.0731126 27.9269C0.0327336 43.3505 12.5033 55.8865 27.9269 55.9269C43.3505 55.9673 55.8865 43.4967 55.9269 28.0731Z" fill="url(#paint0_linear_83_93637)"/>
<path d="M38.3926 16.759C35.648 14.0144 31.9945 12.4995 28.0915 12.4995C20.0717 12.4995 13.531 19.0223 13.531 27.0422C13.531 29.6086 14.2082 32.1036 15.4736 34.3136L13.4062 41.8523L21.1232 39.8206C23.244 40.979 25.6499 41.5849 28.0737 41.5849C36.0936 41.5849 42.6343 35.0621 42.6343 27.0422C42.6343 23.157 41.1194 19.5035 38.3748 16.7411L38.3926 16.759ZM28.0915 39.1433C25.9173 39.1433 23.7965 38.5552 21.943 37.4502L21.4974 37.1829L16.9172 38.377L18.1469 33.9215L17.8617 33.4581C16.6498 31.5333 16.0083 29.3056 16.0083 27.0244C16.0083 20.359 21.4439 14.9233 28.1094 14.9233C31.3351 14.9233 34.3827 16.1887 36.6639 18.4699C38.9451 20.7511 40.2105 23.7986 40.2105 27.0244C40.2105 33.6898 34.7748 39.1255 28.1094 39.1255L28.0915 39.1433ZM34.7213 30.0898C34.3649 29.9116 32.5649 29.0205 32.2441 28.9135C31.9054 28.7888 31.6737 28.7353 31.4242 29.0917C31.1747 29.4482 30.4797 30.268 30.2658 30.5175C30.052 30.767 29.8381 30.7848 29.4817 30.6066C29.1252 30.4284 27.949 30.0363 26.5589 28.8066C25.4717 27.8442 24.741 26.6501 24.5272 26.2937C24.3133 25.9373 24.5093 25.7412 24.6875 25.5452C24.8479 25.3848 25.044 25.1174 25.24 24.9036C25.4182 24.6897 25.4895 24.5471 25.5965 24.2976C25.7212 24.0481 25.6499 23.8343 25.5608 23.656C25.4717 23.4778 24.741 21.6778 24.438 20.9649C24.1351 20.2521 23.8499 20.359 23.6182 20.3412C23.4044 20.3412 23.1549 20.3412 22.9232 20.3412C22.6915 20.3412 22.2816 20.4303 21.9608 20.8045C21.64 21.1788 20.6954 22.0521 20.6954 23.8343C20.6954 25.6165 21.9965 27.3452 22.1747 27.5947C22.3529 27.8442 24.741 31.5155 28.3945 33.0839C29.2678 33.4581 29.945 33.6898 30.4619 33.8502C31.3351 34.1354 32.1193 34.0819 32.7609 33.9928C33.4559 33.8858 34.9173 33.1195 35.2203 32.264C35.5233 31.4086 35.5233 30.6957 35.4342 30.5353C35.3451 30.3749 35.0956 30.2858 34.7391 30.1076L34.7213 30.0898Z" fill="white"/>
<defs>
<linearGradient id="paint0_linear_83_93637" x1="-18.1826" y1="6.66009" x2="-39.4007" y2="38.4872" gradientUnits="userSpaceOnUse">
<stop stop-color="#63DC7D"/>
<stop offset="1" stop-color="#2BB826"/>
</linearGradient>
</defs>
</svg>
