<svg width="12" height="12" viewBox="0 0 12 12" fill="none" xmlns="http://www.w3.org/2000/svg">
    <g>
        <g>
            <path d="M11.9998 6.00002C11.9922 5.80502 11.9119 5.57958 11.7782 5.43746L6.86912 0.255531C6.58244 -0.0840553 6.03113 -0.077203 5.70887 0.228707C5.38661 0.534811 5.36016 1.07661 5.68452 1.38042L9.28099 5.18169H0.818225C0.366411 5.18169 5.38815e-09 5.54809 0 5.99993C-5.38815e-09 6.45177 0.366207 6.81818 0.818225 6.81818H9.28099L5.68452 10.6194C5.36016 10.9233 5.38661 11.4675 5.70906 11.7734C6.03133 12.0796 6.59065 12.0809 6.86931 11.7443L11.7784 6.56241C11.9277 6.40375 11.9975 6.21881 11.9998 6.00002Z" fill="#282828"/>
        </g>
    </g>
</svg>