<svg width="12" height="12" viewBox="0 0 12 12" fill="none" xmlns="http://www.w3.org/2000/svg">
    <g clip-path="url(#clip0_4021_139061)">
        <path d="M10.6426 1.34388H7.64513C7.36747 1.1361 7.02422 1.01129 6.65166 1.01129C6.06759 1.01129 5.55387 1.31466 5.25721 1.77148L3.49583 0.890851L2.70326 2.67421H2.35509L1.91376 1.35023C1.78009 0.949205 1.4048 0.678711 0.98208 0.678711H0.498874C0.223353 0.678711 0 0.902064 0 1.17759C0 1.45311 0.223354 1.67646 0.498874 1.67646H0.970738L3.35322 8.8239C2.94101 9.05023 2.66069 9.48843 2.66069 9.991C2.66069 10.7246 3.25746 11.3213 3.99102 11.3213C4.72458 11.3213 5.32135 10.7246 5.32135 9.991C5.32135 9.87594 5.30511 9.76495 5.27755 9.65842H8.35821C8.33075 9.76495 8.31451 9.87594 8.31451 9.991C8.31451 10.7246 8.91128 11.3213 9.64484 11.3213C10.3784 11.3213 10.9752 10.7246 10.9752 9.991C10.9752 9.25745 10.3784 8.66067 9.64484 8.66067H4.3506L4.01801 7.66293H9.61633C10.0468 7.66293 10.4289 7.3875 10.565 6.97915L11.5708 3.96187C11.7819 3.32838 11.3104 2.67418 10.6427 2.67418L10.6426 1.34388ZM9.6449 9.32586C10.0116 9.32586 10.3101 9.62429 10.3101 9.99103C10.3101 10.3578 10.0116 10.6562 9.6449 10.6562C9.27816 10.6562 8.97974 10.3578 8.97974 9.99103C8.97974 9.62429 9.27816 9.32586 9.6449 9.32586ZM9.97748 2.00904V2.67421H8.31457C8.31457 2.43767 8.26418 2.21301 8.17473 2.00904H9.97748ZM6.65166 1.67646C7.20184 1.67646 7.6494 2.12402 7.6494 2.67421H5.65391C5.65391 2.12402 6.10147 1.67646 6.65166 1.67646ZM3.8209 1.797L5.01416 2.39368C4.99866 2.48499 4.98864 2.57844 4.98864 2.67421H3.43106L3.8209 1.797ZM2.68758 3.67196H4.20815L4.37444 4.66971H3.02016L2.68758 3.67196ZM4.65606 9.99103C4.65606 10.3578 4.35764 10.6562 3.9909 10.6562C3.62416 10.6562 3.32573 10.3578 3.32573 9.99103C3.32573 9.62429 3.62416 9.32587 3.9909 9.32587C4.35764 9.32587 4.65606 9.62429 4.65606 9.99103ZM3.68533 6.66521L3.24195 5.33488H4.48524L4.70702 6.66521H3.68533ZM6.31891 6.66521H5.38119L5.15941 5.33488H6.31891L6.31891 6.66521ZM6.31891 4.66971H5.04861L4.88232 3.67196H6.31891V4.66971ZM7.92179 6.66521H6.98407V5.33488H8.14357L7.92179 6.66521ZM8.25437 4.66971H6.98407V3.67196H8.42066L8.25437 4.66971ZM9.61775 6.66521H8.59605L8.81784 5.33488H10.0613L9.61775 6.66521ZM10.2829 4.66971H8.92864L9.09493 3.67196H10.6155L10.2829 4.66971Z" fill="#333"/>
    </g>
    <defs>
        <clipPath id="clip0_4021_139061">
            <rect width="12" height="12" fill="white"/>
        </clipPath>
    </defs>
</svg>