<svg width="16" height="16" viewBox="0 0 16 16" fill="none" xmlns="http://www.w3.org/2000/svg">
    <g clip-path="url(#clip0_246_12163)">
        <path fill-rule="evenodd" clip-rule="evenodd"
              d="M4 1.82C4 0.814842 4.81757 0 5.82609 0H14.1739C15.1824 0 16 0.814842 16 1.82V11.18C16 12.1852 15.1824 13 14.1739 13L11.0435 13L11.0435 11.44L14.1739 11.44C14.318 11.44 14.4348 11.3236 14.4348 11.18V1.82C14.4348 1.67641 14.318 1.56 14.1739 1.56H5.82609C5.68201 1.56 5.56522 1.67641 5.56522 1.82V3.9H4V1.82Z"
              fill="#282828"/>
        <path fill-rule="evenodd" clip-rule="evenodd"
              d="M0 4.82C0 3.81484 0.817567 3 1.82609 3H10.1739C11.1824 3 12 3.81484 12 4.82V14.18C12 15.1852 11.1824 16 10.1739 16H1.82609C0.817567 16 0 15.1852 0 14.18V4.82ZM1.82609 4.56C1.68201 4.56 1.56522 4.67641 1.56522 4.82V14.18C1.56522 14.3236 1.68201 14.44 1.82609 14.44H10.1739C10.318 14.44 10.4348 14.3236 10.4348 14.18V4.82C10.4348 4.67641 10.318 4.56 10.1739 4.56H1.82609Z"
              fill="#282828"/>
    </g>
    <defs>
        <clipPath id="clip0_246_12163">
            <rect width="16" height="16" fill="white"/>
        </clipPath>
    </defs>
</svg>