<svg width="14" height="13" viewBox="0 0 14 13" fill="none"
     xmlns="http://www.w3.org/2000/svg">
    <path fill-rule="evenodd" clip-rule="evenodd"
          d="M7.00119 12.7273C7.00119 12.7273 13.1243 8.86253 13.804 5.79802C13.9298 5.41319 14 5.00129 14 4.57294C14 3.0753 13.1742 1.77204 11.9552 1.09301C11.3884 0.779335 10.7383 0.598938 10.0446 0.598938C9.33567 0.598938 8.66921 0.882763 8.09324 1.29235C7.67498 1.58978 7.30444 1.95353 7 2.32307C6.69433 1.95378 6.32385 1.59027 5.90603 1.29294C5.33 0.883037 4.66397 0.598938 3.9537 0.598938C3.26174 0.598938 2.6128 0.779335 2.0447 1.09301C0.82583 1.77108 0 3.07474 0 4.57294C0 5.00185 0.0694817 5.41319 0.195328 5.79802C0.874006 8.86245 7.00119 12.7273 7.00119 12.7273ZM2.77185 2.40498C2.01168 2.82882 1.5 3.64055 1.5 4.57294C1.5 4.83866 1.54288 5.09281 1.62103 5.33179L1.64392 5.40178L1.65984 5.47367C1.7509 5.88484 2.07509 6.47626 2.69111 7.20575C3.28385 7.90769 4.04179 8.61578 4.81391 9.2602C5.58094 9.90038 6.33251 10.4534 6.89438 10.8474C6.93075 10.8728 6.96628 10.8977 7.00093 10.9217C7.03544 10.8977 7.07082 10.873 7.10703 10.8476C7.66855 10.4536 8.41965 9.90066 9.18626 9.26049C9.95794 8.61608 10.7155 7.90798 11.3081 7.206C11.9239 6.47651 12.2483 5.88486 12.3395 5.47325L12.3554 5.40157L12.3783 5.33179C12.4569 5.09125 12.5 4.83651 12.5 4.57294C12.5 3.64148 11.9886 2.82948 11.2271 2.40445C10.8742 2.20955 10.4736 2.09894 10.0446 2.09894C9.4909 2.09894 8.7766 2.52562 8.15772 3.27684L7.00273 4.67882L5.84449 3.27952C5.2194 2.52433 4.5083 2.09894 3.9537 2.09894C3.52754 2.09894 3.12758 2.209 2.77185 2.40498Z"
          fill="currentColor"/>
</svg>