<svg width="16" height="16" viewBox="0 0 16 16" fill="none" xmlns="http://www.w3.org/2000/svg">
    <g clip-path="url(#clip0_12_100104)">
        <path fill-rule="evenodd" clip-rule="evenodd" d="M3.9897 0C3.46192 0 2.95595 0.209636 2.58277 0.582653C2.20974 0.955825 2 1.46192 2 1.9897V14.3304C1.99976 14.8196 2.24566 15.2759 2.65398 15.5449C3.06255 15.8141 3.57907 15.8594 4.02835 15.6659L5.72095 14.937L7.64598 15.8586L7.6475 15.8593C8.05397 16.0517 8.52661 16.0466 8.92882 15.8449L10.9611 14.8154L12.4519 15.5695C12.9022 15.7964 13.438 15.7737 13.8675 15.5095C14.2971 15.2452 14.5589 14.7768 14.5594 14.2725V1.9897C14.5594 1.46192 14.3496 0.955839 13.9766 0.582662C13.6035 0.209635 13.0974 0 12.5697 0H3.9897ZM12.9489 1.61053C13.0495 1.71108 13.106 1.84753 13.106 1.98974V14.2725L11.4436 13.4317C11.1387 13.2777 10.7789 13.2779 10.474 13.4318L8.27062 14.5477L6.1905 13.552C5.91113 13.418 5.58757 13.4113 5.30306 13.5337L3.45349 14.3305V1.98974C3.45349 1.84753 3.50999 1.71108 3.61054 1.61053C3.71108 1.50999 3.84754 1.45349 3.98974 1.45349H12.5697C12.7119 1.45349 12.8484 1.50999 12.9489 1.61053Z" fill="#282828"/>
        <path d="M5.59847 2.68124H10.9609C11.2887 2.68124 11.5915 2.85606 11.7553 3.13988C11.9191 3.42363 11.9191 3.77325 11.7553 4.057C11.5915 4.34082 11.2887 4.51564 10.9609 4.51564H5.59847C5.27075 4.51564 4.96793 4.34082 4.80411 4.05701C4.64033 3.77326 4.64033 3.42363 4.80411 3.13988C4.96793 2.85606 5.27075 2.68124 5.59847 2.68124Z" fill="#282828"/>
        <path d="M5.59847 5.36248H10.9609C11.2887 5.36248 11.5915 5.5373 11.7553 5.82112C11.9191 6.10487 11.9191 6.45449 11.7553 6.73825C11.5915 7.02206 11.2887 7.19688 10.9609 7.19688H5.59847C5.27075 7.19688 4.96793 7.02206 4.80411 6.73825C4.64033 6.4545 4.64033 6.10487 4.80411 5.82112C4.96793 5.5373 5.27075 5.36248 5.59847 5.36248Z" fill="#282828"/>
        <path d="M5.59847 8.04372H8.61488C8.9426 8.04372 9.24542 8.21854 9.40924 8.50236C9.57302 8.78611 9.57302 9.13573 9.40924 9.41948C9.24542 9.7033 8.9426 9.87812 8.61488 9.87812H5.59847C5.27075 9.87812 4.96793 9.7033 4.80411 9.41949C4.64033 9.13573 4.64033 8.78611 4.80411 8.50236C4.96793 8.21854 5.27075 8.04372 5.59847 8.04372Z" fill="#282828"/>
    </g>
    <defs>
        <clipPath id="clip0_12_100104">
            <rect width="16" height="16" fill="white"/>
        </clipPath>
    </defs>
</svg>
