<svg width="16" height="16" viewBox="0 0 16 16" fill="none" xmlns="http://www.w3.org/2000/svg">
    <path fill-rule="evenodd" clip-rule="evenodd" d="M7.847 1.188C7.643 1.242 7.455 1.346 7.383 1.443C7.348 1.49 6.671 2.184 5.878 2.984C4.298 4.579 4.306 4.569 4.307 4.867C4.309 5.068 4.402 5.251 4.6 5.437C4.795 5.622 4.938 5.69 5.133 5.692C5.415 5.694 5.471 5.652 6.379 4.751L7.199 3.938L7.206 6.909C7.213 9.693 7.216 9.888 7.261 10.003C7.321 10.156 7.444 10.285 7.6 10.357C7.698 10.403 7.772 10.413 8 10.413C8.228 10.413 8.302 10.403 8.4 10.357C8.55413 10.2867 8.67545 10.16 8.739 10.003C8.784 9.888 8.787 9.693 8.794 6.909L8.801 3.938L9.621 4.751C10.529 5.652 10.585 5.694 10.867 5.692C11.062 5.69 11.205 5.622 11.4 5.437C11.598 5.251 11.691 5.068 11.693 4.867C11.694 4.569 11.702 4.579 10.122 2.984C9.329 2.184 8.652 1.49 8.617 1.443C8.533 1.329 8.301 1.214 8.053 1.165C7.98352 1.16074 7.91383 1.16852 7.847 1.188ZM1.12 7.801C1.03864 7.82725 0.963362 7.86953 0.898611 7.92535C0.83386 7.98117 0.780949 8.04939 0.743 8.126L0.68 8.253L0.673 10.933C0.668 12.787 0.674 13.655 0.694 13.752C0.767 14.101 1.073 14.492 1.396 14.648C1.723 14.807 1.36 14.799 8 14.799C14.64 14.799 14.277 14.807 14.604 14.648C14.927 14.492 15.233 14.101 15.306 13.752C15.326 13.655 15.332 12.787 15.327 10.933L15.32 8.253L15.257 8.126C15.134 7.878 14.904 7.76 14.547 7.76C14.194 7.76 13.961 7.877 13.832 8.117L13.773 8.227L13.766 10.713L13.759 13.2H2.241L2.234 10.713L2.227 8.227L2.168 8.117C2.0858 7.96509 1.94716 7.85159 1.782 7.801C1.56416 7.75102 1.33784 7.75102 1.12 7.801Z" fill="black"/>
</svg>