<svg width="20" height="21" viewBox="0 0 20 21" fill="none" xmlns="http://www.w3.org/2000/svg">
<path d="M3.75 11.4053V16.7499C3.75 16.9157 3.81585 17.0747 3.93306 17.1919C4.05027 17.3091 4.20924 17.3749 4.375 17.3749H15.625C15.7908 17.3749 15.9497 17.3091 16.0669 17.1919C16.1842 17.0747 16.25 16.9157 16.25 16.7499V11.4054" stroke="#282828" stroke-width="1.5" stroke-linecap="round" stroke-linejoin="round"/>
<path d="M4.22144 3.625H15.7786C15.9144 3.625 16.0465 3.66924 16.1549 3.75103C16.2634 3.83282 16.3422 3.94771 16.3795 4.0783L17.5 8H2.5L3.62049 4.0783C3.6578 3.94771 3.73664 3.83282 3.84507 3.75103C3.9535 3.66924 4.08562 3.625 4.22144 3.625Z" stroke="#282828" stroke-width="1.5" stroke-linecap="round" stroke-linejoin="round"/>
<path d="M7.5 8V9.25C7.5 9.91304 7.23661 10.5489 6.76777 11.0178C6.29893 11.4866 5.66304 11.75 5 11.75C4.33696 11.75 3.70107 11.4866 3.23223 11.0178C2.76339 10.5489 2.5 9.91304 2.5 9.25V8" stroke="#282828" stroke-width="1.5" stroke-linecap="round" stroke-linejoin="round"/>
<path d="M12.5 8V9.25C12.5 9.91304 12.2366 10.5489 11.7678 11.0178C11.2989 11.4866 10.663 11.75 10 11.75C9.33696 11.75 8.70107 11.4866 8.23223 11.0178C7.76339 10.5489 7.5 9.91304 7.5 9.25V8" stroke="#282828" stroke-width="1.5" stroke-linecap="round" stroke-linejoin="round"/>
<path d="M17.5 8V9.25C17.5 9.91304 17.2366 10.5489 16.7678 11.0178C16.2989 11.4866 15.663 11.75 15 11.75C14.337 11.75 13.7011 11.4866 13.2322 11.0178C12.7634 10.5489 12.5 9.91304 12.5 9.25V8" stroke="#282828" stroke-width="1.5" stroke-linecap="round" stroke-linejoin="round"/>
</svg> 