<svg width="16" height="16" viewBox="0 0 16 16" fill="none" xmlns="http://www.w3.org/2000/svg">
    <g clip-path="url(#clip0_23_39973)">
        <path fill-rule="evenodd" clip-rule="evenodd" d="M8 0C8.37871 0 8.68571 0.307005 8.68571 0.685714C8.68571 1.06442 8.37871 1.37143 8 1.37143C4.33914 1.37143 1.37143 4.33914 1.37143 8C1.37143 11.6609 4.33914 14.6286 8 14.6286C11.6609 14.6286 14.6286 11.6609 14.6286 8C14.6286 5.68663 13.4347 3.57923 11.5087 2.37505C11.1876 2.17428 11.09 1.75121 11.2908 1.4301C11.4916 1.10899 11.9146 1.01143 12.2357 1.2122C14.5585 2.66447 16 5.20888 16 8C16 12.4183 12.4183 16 8 16C3.58172 16 0 12.4183 0 8C0 3.58172 3.58172 0 8 0ZM8.23421 8.4188L10.3918 7.32439C10.7296 7.15308 11.1422 7.288 11.3136 7.62575C11.4849 7.96349 11.3499 8.37617 11.0122 8.54748L8.31019 9.91802C7.99984 10.0754 7.62078 9.97543 7.42849 9.68539L4.75237 5.649C4.5431 5.33336 4.62933 4.90784 4.94497 4.69857C5.26061 4.48931 5.68613 4.57554 5.8954 4.89118L8.23421 8.4188Z" fill="#282828"/>
    </g>
    <defs>
        <clipPath id="clip0_23_39973">
            <rect width="16" height="16" fill="white"/>
        </clipPath>
    </defs>
</svg>