<svg width="12" height="12" viewBox="0 0 12 12" fill="none" xmlns="http://www.w3.org/2000/svg">
<g clip-path="url(#clip0_5394_1423)">
<path fill-rule="evenodd" clip-rule="evenodd" d="M7.08983 5.99973L11.7742 1.31567C12.0753 1.01461 12.0753 0.526841 11.7742 0.225789C11.4732 -0.0752629 10.9854 -0.0752629 10.6844 0.225789L6 4.90986L1.31561 0.225789C1.01457 -0.0752629 0.526817 -0.0752629 0.225779 0.225789C-0.0752596 0.526841 -0.0752596 1.01461 0.225779 1.31567L4.91017 5.99973L0.225779 10.6843C-0.0752596 10.9854 -0.0752596 11.4732 0.225779 11.7742C0.526817 12.0753 1.01457 12.0753 1.31561 11.7742L6 7.08961L10.6844 11.7742C10.835 11.9249 11.0322 11.9999 11.2293 11.9999C11.4264 11.9999 11.6236 11.9246 11.7742 11.7742C12.0753 11.4732 12.0753 10.9854 11.7742 10.6843L7.08983 5.99973Z" fill="#282828"/>
</g>
<defs>
<clipPath id="clip0_5394_1423">
<rect width="12" height="12" fill="white"/>
</clipPath>
</defs>
</svg>
